<svg xmlns="http://www.w3.org/2000/svg" viewBox="0 0 300 300" width="300" height="300"><defs/><g transform="matrix(1,0,0,1,0,0)">
<g>
	<g>
		<g transform="matrix(0.997799203,0,0,0.997799203,0.211167847,0.798848899)">
			<path id="bm_purple" d="M91.8048338686246,42.556777481667204 C121.30955072615646,38.68454852671263 148.42167086223026,59.505839225550325 152.29389981718484,89.01055608308218 C156.16612877213942,118.51527294061403 135.3448380733017,145.62739307668784 105.84012121576984,149.4996220316424 C76.33540435823798,153.37185098659697 49.22328422216417,132.55056028775928 45.351055267209595,103.04584343022742 C41.47882631225502,73.54112657269557 62.30011701109273,46.429006436621776 91.8048338686246,42.556777481667204 Z" fill="#ad0cd4"/>
		</g>
		<g transform="matrix(0.997799203,0,0,0.997799203,0.211167847,0.798848899)">
			<path id="bm_red" d="M115.39738468564497,147.35555099497452 C144.90210154317683,143.48332204001994 172.01422167925062,164.30461273885763 175.8864506342052,193.8093295963895 C179.75867958915978,223.31404645392132 158.93738889032207,250.42616658999515 129.4326720327902,254.2983955449497 C99.92795517525835,258.1706244999043 72.81583503918453,237.3493338010666 68.94360608422997,207.84461694353473 C65.07137712927539,178.3399000860029 85.8926678281131,151.22777994992907 115.39738468564497,147.35555099497452 Z" fill="#d4280c"/>
		</g>
		<g transform="matrix(0.997799203,0,0,0.997799203,0.211167847,0.798848899)">
			<path id="bm_yellow" d="M194.5109340514399,75.1815801911444 C224.01565090897176,71.30935123618983 251.12777104504556,92.13064193502751 255.00000000000014,121.63535879255937 C258.8722289549547,151.1400756500912 238.050938256117,178.25219578616503 208.54622139858515,182.12442474111958 C179.04150454105329,185.99665369607416 151.9293844049795,165.17536299723648 148.0571554500249,135.67064613970462 C144.18492649507033,106.16592928217277 165.00621719390804,79.05380914609897 194.5109340514399,75.1815801911444 Z" fill="#fbd543"/>
		</g>
	</g>
	<g>
		<path id="bm_black" d="M0,56 C0,56 0,300 0,300 C0,300 300,300 300,300 C300,300 300,55.99999999999999 300,55.99999999999999 C300,56 255,56 255,56 C255,56 255,255 255,255 C255,255 45,255 45,255 C45,255 45,56 45,56 C45.00000000000001,56 0,56 0,56 Z" fill="#000000"/>
	</g>
</g></g></svg>